<?xml version="1.0" encoding="utf-8"?>
<!-- Generator: Adobe Illustrator 26.2.1, SVG Export Plug-In . SVG Version: 6.00 Build 0)  -->
<svg version="1.1" id="Layer_1" xmlns="http://www.w3.org/2000/svg" xmlns:xlink="http://www.w3.org/1999/xlink" x="0px" y="0px"
	 viewBox="0 0 294.4 64.4" style="enable-background:new 0 0 294.4 64.4;" xml:space="preserve">
<style type="text/css">
	.st0{fill:#FFFFFF;}
</style>
<path class="st0" d="M10.6,39.4h5.7V22h-5.7c-1.3,0-2.3,1-2.3,2.3v12.9C8.2,38.5,9.2,39.4,10.6,39.4 M24.5,5v38.6
	c0,2.2-2,4.1-4.1,4.1h-9.8C4.2,47.7,0,43.5,0,37.1V24.3c0-6.1,4.4-10.6,10.6-10.6h5.7V5c0-2.3,1.9-4.2,4.1-4.2
	C22.6,0.8,24.5,2.7,24.5,5z"/>
<path class="st0" d="M194.2,38V23.7c0-1.4-0.4-2.4-1.4-3.4s-1.9-1.3-3.3-1.3h-9.8v23.7h9.8c1.4,0,2.4-0.4,3.3-1.4
	C193.9,40.4,194.2,39.4,194.2,38 M199,38c0,2.9-0.6,4.8-2.7,6.8c-2.1,2-3.9,2.7-6.8,2.7h-9.8v14.4c0,1.3-1.1,2.4-2.4,2.4
	c-1.3,0-2.4-1.1-2.4-2.4V47.4h-14.4c-1.3,0-2.3-1.1-2.3-2.3c0-1.3,1.1-2.4,2.3-2.4H175V16.6c0-0.6,0.3-1.1,0.8-1.6s0.9-0.8,1.6-0.8
	h12.1c2.8,0,4.8,0.6,6.8,2.6c2.1,2.1,2.6,4,2.6,6.8L199,38L199,38z"/>
<path class="st0" d="M45.5,26.5l8.9-0.1c0-2.4-2-4.4-4.4-4.4C47.4,22,45.5,24.1,45.5,26.5 M61.4,40.6c0.7,0.7,1.2,1.8,1.2,2.9
	c0,2.3-1.9,4.1-4.1,4.1H47.7c-3,0-5.4-0.8-7.6-3.1c-2.1-2.2-2.9-4.4-2.9-7.4v-8.6l0.1-2.2c0.2-6.8,5.6-12.7,12.7-12.7
	c7.1-0.1,12.7,5.8,12.7,12.7v4.3c0,1-0.3,2-1,2.7c-0.8,0.9-1.9,1.4-3.1,1.4h-13V37c0,1.4,0.8,2.2,2.2,2.2h10.7
	C59.6,39.4,60.6,39.8,61.4,40.6z"/>
<path class="st0" d="M109.3,24.3v19.3c0,2.2-1.9,4.1-4.2,4.1c-2.3,0-4.1-1.9-4.1-4.1V24.3c0-1.4-0.9-2.3-2.3-2.3h-2.2v21.6
	c0,2.2-1.9,4.1-4.2,4.1c-2.3,0-4.1-1.9-4.1-4.1V22h-4.6v21.6c0,2.2-1.9,4.1-4.2,4.1c-2.3,0-4.1-1.9-4.1-4.1V17.8
	c0-1.2,0.5-2.4,1.4-3.2c0.7-0.6,1.6-1,2.7-1h19.3c3,0,5.4,0.9,7.6,3.1C108.4,18.9,109.3,21.2,109.3,24.3"/>
<path class="st0" d="M130.9,34.8c-0.2,0.6-0.3,1.4-0.3,2.3c0,0.5,0,1.8,0.3,2.3c-0.1,0-0.2-0.1-0.2-0.1h8.7v-4.6L130.9,34.8
	 M147.8,24.3v19.3c0,0.9-0.3,1.8-0.9,2.7c-0.9,1-1.9,1.5-3.2,1.5h-12.9c-5.9,0-8.4-6.1-8.4-10.6s2.5-10.6,8.4-10.6h8.7v-2.2
	c0-1.3-1-2.3-2.3-2.3h-8.6c-2.3,0-4.2-1.9-4.2-4.1c0-2.3,1.9-4.2,4.2-4.2h8.6C143.3,13.6,147.8,18.2,147.8,24.3z"/>
<path class="st0" d="M223.6,45.1c0-0.1,0.2-1.6-1.2-2.1c-0.8-0.4-1.8-1-2.5-2c-0.9-1.1-1-2.1-1-3V2.4c0-1.3-1.1-2.4-2.4-2.4
	s-2.4,1.1-2.4,2.4V38c0,2.1,0.4,4.1,2.1,6.1c0.9,1.1,2,2.3,4.1,3.1C221.2,47.6,223.8,47.5,223.6,45.1"/>
<path class="st0" d="M260.9,45.1V16.6c0-1.3-1.1-2.4-2.4-2.4s-2.4,1.1-2.4,2.4v26.1h-9.5c-1.4,0-2.4-0.3-3.4-1.3s-1.3-2-1.3-3.4
	V16.6c0-1.3-1.1-2.4-2.4-2.4c-1.3,0-2.4,1.1-2.4,2.4V38c0,2.8,0.6,4.7,2.6,6.7c2.1,2.1,4.1,2.8,6.9,2.8h11.9c0.7,0,1.2-0.1,1.7-0.6
	C260.7,46.3,260.9,45.8,260.9,45.1"/>
<path class="st0" d="M294.4,39.1c-0.1-2.2-0.4-3.3-2.2-5.3l-11.4-9.7c-0.4-0.6-0.6-1-0.6-1.6c0-2.2,2.4-3.6,4.7-3.6
	c1.8,0,3.3,0.5,5.3,1.1c1.9,0.5,3.1-0.7,3.1-2.3c0-1-0.4-1.8-1.6-2.1c-1.9-0.6-4.1-1.4-6.8-1.4c-3.7,0-9.5,1.7-9.5,8.3
	c0,2.4,0.7,3.8,2.4,5.5l11,9.3c1,0.9,0.9,1.1,0.9,1.8c0,2.3-2.4,3.6-4.8,3.6c-3.3,0.1-4.8-0.8-6.5-1.1c-1.4-0.3-3.1,0.9-3,2.4
	c0,1,0.5,1.8,1.4,2.1c3.5,1.1,4.8,1.4,8.1,1.5C289.7,47.5,294.6,44.1,294.4,39.1"/>
</svg>
